<?xml version="1.0" encoding="UTF-8" standalone="no"?>
<!-- Created with Inkscape (http://www.inkscape.org/) -->

<svg
   version="1.1"
   id="svg2"
   width="666.66669"
   height="496.81332"
   viewBox="0 0 666.66669 496.81332"
   sodipodi:docname="3394877.eps"
   xmlns:inkscape="http://www.inkscape.org/namespaces/inkscape"
   xmlns:sodipodi="http://sodipodi.sourceforge.net/DTD/sodipodi-0.dtd"
   xmlns="http://www.w3.org/2000/svg"
   xmlns:svg="http://www.w3.org/2000/svg">
  <defs
     id="defs6" />
  <sodipodi:namedview
     id="namedview4"
     pagecolor="#ffffff"
     bordercolor="#000000"
     borderopacity="0.25"
     inkscape:showpageshadow="2"
     inkscape:pageopacity="0.0"
     inkscape:pagecheckerboard="0"
     inkscape:deskcolor="#d1d1d1" />
  <g
     id="g8"
     inkscape:groupmode="layer"
     inkscape:label="ink_ext_XXXXXX"
     transform="matrix(1.3333333,0,0,-1.3333333,0,496.81333)">
    <g
       id="g10"
       transform="scale(0.1)">
      <path
         d="m 0,449.129 h 5000 v 2.5 H 0 Z"
         style="fill:#e7e8e5;fill-opacity:1;fill-rule:nonzero;stroke:none"
         id="path12" />
      <path
         d="m 3943.58,337.09 h 509.01 v -2.5 h -509.01 v 2.5"
         style="fill:#e7e8e5;fill-opacity:1;fill-rule:nonzero;stroke:none"
         id="path14" />
      <path
         d="M 996.664,364.23 H 524.59 v 2.5 h 472.074 v -2.5"
         style="fill:#e7e8e5;fill-opacity:1;fill-rule:nonzero;stroke:none"
         id="path16" />
      <path
         d="m 3788.07,381.039 h 191.918 v 2.5 H 3788.07 Z"
         style="fill:#e7e8e5;fill-opacity:1;fill-rule:nonzero;stroke:none"
         id="path18" />
      <path
         d="m 3171.38,314.738 h 140.82 v 2.5 h -140.82 z"
         style="fill:#e7e8e5;fill-opacity:1;fill-rule:nonzero;stroke:none"
         id="path20" />
      <path
         d="m 2727.9,314.738 h 354.441 v 2.5 H 2727.9 Z"
         style="fill:#e7e8e5;fill-opacity:1;fill-rule:nonzero;stroke:none"
         id="path22" />
      <path
         d="m 1952.22,356.949 h 569.859 v 2.5 H 1952.22 Z"
         style="fill:#e7e8e5;fill-opacity:1;fill-rule:nonzero;stroke:none"
         id="path24" />
      <path
         d="m 439.152,3723.59 c -30.101,0 -54.582,-24.49 -54.582,-54.57 V 954.699 c 0,-30.097 24.481,-54.578 54.582,-54.578 H 2370.14 c 30.08,0 54.57,24.481 54.57,54.578 V 3669.02 c 0,30.08 -24.49,54.57 -54.57,54.57 H 439.152 M 2370.14,897.621 H 439.152 c -31.476,0 -57.082,25.598 -57.082,57.078 V 3669.02 c 0,31.46 25.606,57.07 57.082,57.07 H 2370.14 c 31.46,0 57.07,-25.61 57.07,-57.07 V 954.699 c 0,-31.48 -25.61,-57.078 -57.07,-57.078"
         style="fill:#e7e8e5;fill-opacity:1;fill-rule:nonzero;stroke:none"
         id="path26" />
      <path
         d="m 2602.12,3723.59 c -30.09,0 -54.57,-24.49 -54.57,-54.57 V 954.699 c 0,-30.097 24.48,-54.578 54.57,-54.578 h 1930.99 c 30.09,0 54.58,24.481 54.58,54.578 V 3669.02 c 0,30.08 -24.49,54.57 -54.58,54.57 H 2602.12 M 4533.11,897.621 H 2602.12 c -31.47,0 -57.07,25.598 -57.07,57.078 V 3669.02 c 0,31.46 25.6,57.07 57.07,57.07 h 1930.99 c 31.47,0 57.08,-25.61 57.08,-57.07 V 954.699 c 0,-31.48 -25.61,-57.078 -57.08,-57.078"
         style="fill:#e7e8e5;fill-opacity:1;fill-rule:nonzero;stroke:none"
         id="path28" />
      <path
         d="m 2885.72,451.629 h 1018 v 2967.32 h -1018 z"
         style="fill:#e7e8e5;fill-opacity:1;fill-rule:nonzero;stroke:none"
         id="path30" />
      <path
         d="M 2954.43,511.629 H 3835 v 2847.32 h -880.57 z"
         style="fill:#fafaf9;fill-opacity:1;fill-rule:nonzero;stroke:none"
         id="path32" />
      <path
         d="m 1837.19,451.629 h 1017.99 v 2967.32 H 1837.19 Z"
         style="fill:#e7e8e5;fill-opacity:1;fill-rule:nonzero;stroke:none"
         id="path34" />
      <path
         d="m 2855.18,463.301 h 30.5391 v 2943.98 H 2855.18 Z"
         style="fill:#dadbd8;fill-opacity:1;fill-rule:nonzero;stroke:none"
         id="path36" />
      <path
         d="m 1905.9,511.629 h 880.563 v 2847.32 H 1905.9 Z"
         style="fill:#fafaf9;fill-opacity:1;fill-rule:nonzero;stroke:none"
         id="path38" />
      <path
         d="M 4368.72,3441.17 H 1372.19 c -7.33,0 -13.33,6 -13.33,13.33 0,7.34 6,13.34 13.33,13.34 h 2996.53 c 7.33,0 13.33,-6 13.33,-13.34 0,-7.33 -6,-13.33 -13.33,-13.33"
         style="fill:#dadbd8;fill-opacity:1;fill-rule:nonzero;stroke:none"
         id="path40" />
      <path
         d="M 2954.43,3302.29 H 3835 v 56.6602 h -880.57 z"
         style="fill:#dadbd8;fill-opacity:1;fill-rule:nonzero;stroke:none"
         id="path42" />
      <path
         d="M 2954.43,3263.39 H 3835 v 95.5547 h -880.57 z"
         style="fill:#dadbd8;fill-opacity:1;fill-rule:nonzero;stroke:none"
         id="path44" />
      <path
         d="m 1905.9,3150.06 h 880.563 v 208.887 H 1905.9 Z"
         style="fill:#dadbd8;fill-opacity:1;fill-rule:nonzero;stroke:none"
         id="path46" />
      <path
         d="m 3752.43,488.121 h 74.4414 v 23.5078 H 3752.43 Z"
         style="fill:#f0f0ee;fill-opacity:1;fill-rule:nonzero;stroke:none"
         id="path48" />
      <path
         d="m 3826.87,511.629 h -74.44 V 1698.38 h 74.44 -69.07 l 69.07,-1105.548 v -81.203 m 0,1253.351 h -74.44 v 1498.41 h 74.44 V 1764.98"
         style="fill:#f4f4f2;fill-opacity:1;fill-rule:nonzero;stroke:none"
         id="path50" />
      <path
         d="m 3752.43,3418.95 h 74.4414 v 22.2266 H 3752.43 Z"
         style="fill:#f6f6f4;fill-opacity:1;fill-rule:nonzero;stroke:none"
         id="path52" />
      <path
         d="m 3752.43,3358.95 h 74.4414 v 60 H 3752.43 Z"
         style="fill:#f0f0ee;fill-opacity:1;fill-rule:nonzero;stroke:none"
         id="path54" />
      <path
         d="m 3826.87,3467.84 h -74.44 v 62.22 H 4034.44 3960 3826.87 v -62.22"
         style="fill:#f6f6f4;fill-opacity:1;fill-rule:nonzero;stroke:none"
         id="path56" />
      <path
         d="m 3752.43,3441.17 h 74.4414 v 26.6719 H 3752.43 Z"
         style="fill:#eeeeec;fill-opacity:1;fill-rule:nonzero;stroke:none"
         id="path58" />
      <path
         d="m 3752.43,3263.39 h 74.4414 v 95.5547 H 3752.43 Z"
         style="fill:#eeeeec;fill-opacity:1;fill-rule:nonzero;stroke:none"
         id="path60" />
      <path
         d="m 3903.72,1760.09 v 0 1658.86 h -76.85 v 22.22 h 76.85 V 1760.09"
         style="fill:#f0f0ee;fill-opacity:1;fill-rule:nonzero;stroke:none"
         id="path62" />
      <path
         d="m 3903.72,488.121 h -0.84 l -56.71,1210.259 h -11.17 51.39 c 6.34,0 12.27,1.79 17.33,4.9 V 488.121 m -70.31,0 h -6.54 v 23.508 h 5.07 l 1.47,-23.508 m 70.31,1271.969 c -5.06,3.1 -10.99,4.89 -17.33,4.89 H 3835 v 1498.41 95.56 h -8.13 v 60 h 76.85 V 1760.09"
         style="fill:#ececea;fill-opacity:1;fill-rule:nonzero;stroke:none"
         id="path64" />
      <path
         d="m 3831.94,511.629 h -5.07 v 81.203 l 5.07,-81.203 M 3835,1764.98 h -8.13 V 3263.39 H 3835 V 1764.98"
         style="fill:#efefed;fill-opacity:1;fill-rule:nonzero;stroke:none"
         id="path66" />
      <path
         d="m 3903.72,3467.84 h -76.85 v 62.22 H 3960 3903.72 v -62.22"
         style="fill:#f0f0ee;fill-opacity:1;fill-rule:nonzero;stroke:none"
         id="path68" />
      <path
         d="m 3826.87,3441.17 h 76.8477 v 26.6719 H 3826.87 Z"
         style="fill:#eaeae7;fill-opacity:1;fill-rule:nonzero;stroke:none"
         id="path70" />
      <path
         d="m 3826.87,3263.39 h 8.1289 v 95.5547 h -8.1289 z"
         style="fill:#eaeae7;fill-opacity:1;fill-rule:nonzero;stroke:none"
         id="path72" />
      <path
         d="m 3978.16,488.121 h -74.44 v 409.5 h 74.44 v -409.5 m 0,412 h -74.44 v 803.159 c 9.56,5.86 15.97,16.42 15.97,28.4 v 0 0 c 0,11.99 -6.41,22.54 -15.97,28.41 v 1681.08 h 74.44 V 900.121"
         style="fill:#f6f6f4;fill-opacity:1;fill-rule:nonzero;stroke:none"
         id="path74" />
      <path
         d="m 3903.72,897.621 h 74.4414 v 2.5 H 3903.72 Z"
         style="fill:#f0f0ee;fill-opacity:1;fill-rule:nonzero;stroke:none"
         id="path76" />
      <path
         d="m 3978.16,3467.84 h -74.44 v 62.22 h 282.01 -74.44 -133.13 v -62.22"
         style="fill:#f6f6f4;fill-opacity:1;fill-rule:nonzero;stroke:none"
         id="path78" />
      <path
         d="m 3903.72,3441.17 h 74.4414 v 26.6719 H 3903.72 Z"
         style="fill:#eeeeec;fill-opacity:1;fill-rule:nonzero;stroke:none"
         id="path80" />
      <path
         d="m 4044.72,488.121 h -66.56 v 409.5 h 66.56 v -409.5 m 0,412 h -66.56 V 3441.17 h 66.56 V 900.121"
         style="fill:#f0f0ee;fill-opacity:1;fill-rule:nonzero;stroke:none"
         id="path82" />
      <path
         d="m 3978.16,897.621 h 66.5586 v 2.5 H 3978.16 Z"
         style="fill:#ececea;fill-opacity:1;fill-rule:nonzero;stroke:none"
         id="path84" />
      <path
         d="m 4044.72,3467.84 h -66.56 v 62.22 h 133.13 -66.57 v -62.22"
         style="fill:#f0f0ee;fill-opacity:1;fill-rule:nonzero;stroke:none"
         id="path86" />
      <path
         d="m 3978.16,3441.17 h 66.5586 v 26.6719 H 3978.16 Z"
         style="fill:#eaeae7;fill-opacity:1;fill-rule:nonzero;stroke:none"
         id="path88" />
      <path
         d="m 4326.74,488.121 h -282.02 v 409.5 h 282.02 v -409.5 m 0,412 H 4044.72 V 3441.17 h 282.02 V 900.121"
         style="fill:#f6f6f4;fill-opacity:1;fill-rule:nonzero;stroke:none"
         id="path90" />
      <path
         d="m 4044.72,897.621 h 282.023 v 2.5 H 4044.72 Z"
         style="fill:#f0f0ee;fill-opacity:1;fill-rule:nonzero;stroke:none"
         id="path92" />
      <path
         d="m 4326.74,3467.84 h -282.02 v 62.22 h 282.02 v -62.22"
         style="fill:#f6f6f4;fill-opacity:1;fill-rule:nonzero;stroke:none"
         id="path94" />
      <path
         d="m 4044.72,3441.17 h 282.023 v 26.6719 H 4044.72 Z"
         style="fill:#eeeeec;fill-opacity:1;fill-rule:nonzero;stroke:none"
         id="path96" />
      <path
         d="m 1513.3,488.121 h -108.04 v 409.5 h 108.04 v -409.5 m 0,412 H 1405.26 V 1483.42 H 1513.3 V 900.121 m 0,714.789 h -108.04 v 83.47 h 108.04 v -83.47 m 0,475.04 h -9.89 v 0 h -98.15 V 3441.17 H 1513.3 V 2089.95 m 0,1377.89 h -108.04 v 62.22 h 409.27 -108.04 -193.19 v -62.22"
         style="fill:#f6f6f4;fill-opacity:1;fill-rule:nonzero;stroke:none"
         id="path98" />
      <path
         d="m 1405.26,897.621 h 108.039 v 2.5 H 1405.26 Z"
         style="fill:#f0f0ee;fill-opacity:1;fill-rule:nonzero;stroke:none"
         id="path100" />
      <path
         d="m 1405.26,3441.17 h 108.039 v 26.6719 H 1405.26 Z"
         style="fill:#eeeeec;fill-opacity:1;fill-rule:nonzero;stroke:none"
         id="path102" />
      <path
         d="M 1624.81,488.121 H 1513.3 v 409.5 h 111.51 v -409.5 m 0,412 H 1513.3 v 583.299 h 111.51 V 900.121 m 0,714.789 H 1513.3 v 83.47 h 111.51 v -83.47 m 0,475.04 H 1513.3 v 1351.22 h 111.51 V 2089.95 m 0,1377.89 H 1513.3 v 62.22 h 193.19 -81.68 v -62.22"
         style="fill:#f0f0ee;fill-opacity:1;fill-rule:nonzero;stroke:none"
         id="path104" />
      <path
         d="m 1513.3,897.621 h 111.508 v 2.5 H 1513.3 Z"
         style="fill:#ececea;fill-opacity:1;fill-rule:nonzero;stroke:none"
         id="path106" />
      <path
         d="m 1513.3,3441.17 h 111.508 v 26.6719 H 1513.3 Z"
         style="fill:#eaeae7;fill-opacity:1;fill-rule:nonzero;stroke:none"
         id="path108" />
      <path
         d="m 1709.74,488.121 h -84.93 v 409.5 h 59.34 l 25.59,-409.5 m -25.75,412 h -59.18 v 583.299 h 22.74 l 36.44,-583.299 m 48.86,577.349 -0.28,5.95 h 0.28 v -5.95 m 0,137.44 h -6.44 l -3.92,83.47 h -88.37 l 5.22,-83.47 h -14.53 v 83.47 h 108.04 v -83.47 m 0,475.04 h -108.04 v 1351.22 h 108.04 V 2089.95 m 0,1377.89 h -108.04 v 62.22 h 81.68 108.04 219.55 -108.04 -193.19 v -62.22"
         style="fill:#f6f6f4;fill-opacity:1;fill-rule:nonzero;stroke:none"
         id="path110" />
      <path
         d="m 1684.15,897.621 h -59.34 v 2.5 h 59.18 l 0.16,-2.5"
         style="fill:#f0f0ee;fill-opacity:1;fill-rule:nonzero;stroke:none"
         id="path112" />
      <path
         d="m 1624.81,3441.17 h 108.043 v 26.6719 H 1624.81 Z"
         style="fill:#eeeeec;fill-opacity:1;fill-rule:nonzero;stroke:none"
         id="path114" />
      <path
         d="m 1829.45,488.121 h -50.24 l -19.19,409.5 h 69.43 v -409.5 m 0,412 h -69.55 l -27.05,577.349 v 5.95 h 96.6 V 900.121 m 0,714.789 h -96.6 v 83.47 h 96.6 v -83.47 m 0,475.04 h -96.6 v 1351.22 h 96.6 V 2089.95 m 0,1377.89 h -96.6 v 62.22 h 193.19 -96.59 v -62.22"
         style="fill:#f0f0ee;fill-opacity:1;fill-rule:nonzero;stroke:none"
         id="path116" />
      <path
         d="m 1829.45,897.621 h -69.43 l -0.12,2.5 h 69.55 v -2.5"
         style="fill:#ececea;fill-opacity:1;fill-rule:nonzero;stroke:none"
         id="path118" />
      <path
         d="m 1732.85,3441.17 h 96.5977 v 26.6719 H 1732.85 Z"
         style="fill:#eaeae7;fill-opacity:1;fill-rule:nonzero;stroke:none"
         id="path120" />
      <path
         d="m 1837.19,488.121 h -7.74 v 409.5 h 7.74 v -409.5 m 0,412 h -7.74 v 583.299 h 7.74 V 900.121 m 0,714.789 h -7.74 v 83.47 h 7.74 v -83.47 m 0,475.04 h -7.74 v 1351.22 h 409.27 v -22.22 h -401.53 v -1329 m 401.53,1377.89 h -409.27 v 62.22 h 96.59 108.04 204.64 v -62.22"
         style="fill:#f6f6f4;fill-opacity:1;fill-rule:nonzero;stroke:none"
         id="path122" />
      <path
         d="m 1829.45,897.621 h 7.7422 v 2.5 h -7.7422 z"
         style="fill:#f0f0ee;fill-opacity:1;fill-rule:nonzero;stroke:none"
         id="path124" />
      <path
         d="m 2238.72,488.121 h -401.53 v 995.299 h 68.71 V 511.629 h 332.82 V 488.121 M 1905.9,1614.91 h -68.71 v 83.47 h 68.71 v -83.47 m 0,475.04 h -68.71 v 1329 h 401.53 v -60 H 1905.9 v -1269"
         style="fill:#f0f0ee;fill-opacity:1;fill-rule:nonzero;stroke:none"
         id="path126" />
      <path
         d="M 2238.72,511.629 H 1905.9 v 971.791 h 250.48 c -72.94,-37.49 -123.54,-90.84 -124.16,-166.72 -0.02,-1.74 -0.02,-3.47 -0.02,-5.21 0.04,-211.79 107.28,-458.131 206.52,-640.76 V 511.629 m 0,1103.281 H 1905.9 v 83.47 h 332.82 v -83.47 m -186.36,150.07 h -75.54 c 2.52,0 4.56,2.04 4.56,4.56 v 3.87 71.62 3.88 c 0,2.51 -2.04,4.55 -4.56,4.55 h -44.25 c 2.51,0 4.55,2.04 4.55,4.56 v 3.88 92.05 3.87 c 0,2.52 -2.04,4.55 -4.55,4.55 h 106.38 c 2.51,0 4.56,1.21 4.56,2.69 v 2.28 42.24 2.29 c 0,1.48 -2.05,2.68 -4.56,2.68 h -44.25 c 2.51,0 4.55,1.2 4.55,2.69 v 2.28 65.46 2.28 c 0,1.48 -2.04,2.69 -4.55,2.69 h -88.8 v 1269 h 332.82 -332.82 v -208.89 h 332.82 V 1944.11 l -27.63,-26.55 -20.09,38.67 c -1.03,1.98 -3.04,3.1 -5.13,3.1 -0.89,0 -1.8,-0.2 -2.65,-0.64 -2.82,-1.47 -3.92,-4.95 -2.46,-7.77 l 21.66,-41.69 -150.06,-144.25"
         style="fill:#f4f4f2;fill-opacity:1;fill-rule:nonzero;stroke:none"
         id="path128" />
      <path
         d="m 1829.45,3441.17 h 409.27 v 26.6719 h -409.27 z"
         style="fill:#eeeeec;fill-opacity:1;fill-rule:nonzero;stroke:none"
         id="path130" />
      <path
         d="m 1905.9,3150.06 h 332.82 v 208.887 H 1905.9 Z"
         style="fill:#eeeeec;fill-opacity:1;fill-rule:nonzero;stroke:none"
         id="path132" />
      <path
         d="M 1211.03,1731.6 H 550.719 V 3218.27 H 1211.03 V 1731.6"
         style="fill:#ededeb;fill-opacity:1;fill-rule:nonzero;stroke:none"
         id="path134" />
      <path
         d="m 1211.03,1731.6 h 20.78 v 1486.67 h -20.78 V 1731.6"
         style="fill:#e2e2e0;fill-opacity:1;fill-rule:nonzero;stroke:none"
         id="path136" />
      <path
         d="M 610.719,1791.6 V 3158.27 H 1151.03 V 1791.6 H 610.719"
         style="fill:#fafaf9;fill-opacity:1;fill-rule:nonzero;stroke:none"
         id="path138" />
      <path
         d="M 1252.59,994.871 H 574.77 c -30.922,0 -56.223,25.309 -56.223,56.229 0,30.93 25.301,56.23 56.223,56.23 h 677.82 c 30.93,0 56.23,-25.3 56.23,-56.23 0,-30.92 -25.3,-56.229 -56.23,-56.229"
         style="fill:#f3f2f1;fill-opacity:1;fill-rule:nonzero;stroke:none"
         id="path140" />
      <path
         d="M 737.777,994.871 H 626.539 L 500,451.629 h 111.246 l 126.531,543.242"
         style="fill:#e2e2e0;fill-opacity:1;fill-rule:nonzero;stroke:none"
         id="path142" />
      <path
         d="M 959.855,994.871 H 848.613 L 786.27,451.629 h 111.246 l 62.339,543.242"
         style="fill:#e2e2e0;fill-opacity:1;fill-rule:nonzero;stroke:none"
         id="path144" />
      <path
         d="m 1089.59,994.871 h 111.23 l 126.54,-543.242 h -111.24 l -126.53,543.242"
         style="fill:#e2e2e0;fill-opacity:1;fill-rule:nonzero;stroke:none"
         id="path146" />
      <path
         d="M 4438.89,113.23 C 4438.89,50.6914 3570.83,0 2500,0 1429.18,0 561.109,50.6914 561.109,113.23 c 0,62.54 868.071,113.239 1938.891,113.239 1070.83,0 1938.89,-50.699 1938.89,-113.239"
         style="fill:#f3f2f1;fill-opacity:1;fill-rule:nonzero;stroke:none"
         id="path148" />
      <path
         d="m 3145.77,1199.83 h -853.39 c -16.09,0 -29.26,13.17 -29.26,29.26 v 33.66 c 0,16.08 13.17,29.25 29.26,29.25 h 853.39 c 16.09,0 29.26,-13.17 29.26,-29.25 v -33.66 c 0,-16.09 -13.17,-29.26 -29.26,-29.26"
         style="fill:#17282f;fill-opacity:1;fill-rule:nonzero;stroke:none"
         id="path150" />
      <path
         d="m 3137.62,173.199 h 37.41 l -43.06,1026.631 h -51.76 l 57.41,-1026.631"
         style="fill:#406fbf;fill-opacity:1;fill-rule:nonzero;stroke:none"
         id="path152" />
      <path
         d="m 3175.03,173.199 h -37.41 l -54.97,983.031 h 51.15 l 41.23,-983.031"
         style="fill:#a4c3e9;fill-opacity:1;fill-rule:nonzero;stroke:none"
         id="path154" />
      <path
         d="m 2793.27,173.199 h -37.41 l 43.06,1026.631 h 51.76 L 2793.27,173.199"
         style="fill:#406fbf;fill-opacity:1;fill-rule:nonzero;stroke:none"
         id="path156" />
      <path
         d="m 2793.27,173.199 h -37.41 l 43.06,1026.631 h 0.01 l -1.83,-43.6 h 51.14 l -39.4,-704.601 -0.14,-2.5 -7.37,-131.891 -0.14,-2.5 -7.92,-141.539 m 55.64,994.931 1.75,31.7 h 0.02 l -1.77,-31.7"
         style="fill:#a4c3e9;fill-opacity:1;fill-rule:nonzero;stroke:none"
         id="path158" />
      <path
         d="m 2644.88,173.199 h 37.41 l -43.06,1026.631 h -51.75 l 57.4,-1026.631"
         style="fill:#406fbf;fill-opacity:1;fill-rule:nonzero;stroke:none"
         id="path160" />
      <path
         d="m 2682.29,173.199 h -37.41 l -54.97,983.031 h 51.14 l -1.83,43.6 h 0.01 l 43.06,-1026.631 m -92.62,987.431 -2.19,39.2 h 0.02 l 2.17,-39.2"
         style="fill:#a4c3e9;fill-opacity:1;fill-rule:nonzero;stroke:none"
         id="path162" />
      <path
         d="m 2300.53,173.199 h -37.41 l 43.06,1026.631 h 51.76 L 2300.53,173.199"
         style="fill:#406fbf;fill-opacity:1;fill-rule:nonzero;stroke:none"
         id="path164" />
      <path
         d="m 2300.53,173.199 h -37.41 l 17.73,422.711 c 10.23,-17.539 20.17,-34.18 29.67,-49.781 1.77,-46.809 3.18,-87.41 4.22,-118.891 l -3.79,-67.789 -0.14,-2.5 -10.28,-183.75"
         style="fill:#a4c3e9;fill-opacity:1;fill-rule:nonzero;stroke:none"
         id="path166" />
      <path
         d="m 3133.84,1156.23 h -0.04 l -1.83,43.6 h -51.76 l 2.44,-43.6 h -0.05 l -2.42,43.6 H 3132 l 1.84,-43.6"
         style="fill:#b4ceee;fill-opacity:1;fill-rule:nonzero;stroke:none"
         id="path168" />
      <path
         d="m 3080.18,1199.83 h 51.8203 v 0.027 H 3080.18 Z"
         style="fill:#22497d;fill-opacity:1;fill-rule:nonzero;stroke:none"
         id="path170" />
      <path
         d="m 3133.8,1156.23 h -51.15 l -2.44,43.6 h 51.76 l 1.83,-43.6"
         style="fill:#80a8de;fill-opacity:1;fill-rule:nonzero;stroke:none"
         id="path172" />
      <path
         d="m 2848.25,1156.23 h -0.01 l 0.67,11.9 -0.66,-11.9"
         style="fill:#a8c3e9;fill-opacity:1;fill-rule:nonzero;stroke:none"
         id="path174" />
      <path
         d="m 2798.93,1199.83 h 51.7305 v 0.027 H 2798.93 Z"
         style="fill:#22497d;fill-opacity:1;fill-rule:nonzero;stroke:none"
         id="path176" />
      <path
         d="m 2848.24,1156.23 h -51.14 l 1.83,43.6 h 51.73 l -1.75,-31.7 -0.67,-11.9"
         style="fill:#80a8de;fill-opacity:1;fill-rule:nonzero;stroke:none"
         id="path178" />
      <path
         d="m 2589.91,1156.23 v 0 l -0.24,4.4 0.24,-4.4"
         style="fill:#b4ceee;fill-opacity:1;fill-rule:nonzero;stroke:none"
         id="path180" />
      <path
         d="m 2587.5,1199.83 h 51.7188 v 0.027 H 2587.5 Z"
         style="fill:#22497d;fill-opacity:1;fill-rule:nonzero;stroke:none"
         id="path182" />
      <path
         d="m 2641.05,1156.23 h -51.14 l -0.24,4.4 -2.17,39.2 h 51.72 l 1.83,-43.6"
         style="fill:#80a8de;fill-opacity:1;fill-rule:nonzero;stroke:none"
         id="path184" />
      <path
         d="m 2620.85,324.07 -84.69,-44.968 -133.33,180.117 84.69,44.972 133.33,-180.121"
         style="fill:#f89e63;fill-opacity:1;fill-rule:nonzero;stroke:none"
         id="path186" />
      <path
         d="m 2505.64,306.898 88.36,61.434 c 3.21,2.238 7.19,1.688 9.56,-1.32 l 52.9,-66.922 c 5.49,-6.942 3.45,-18.539 -4.04,-23.559 -31.13,-20.859 -45.16,-28.14 -85.86,-52.301 -25.03,-14.859 -85.07,-50.109 -121.95,-66.14 -36.06,-15.68 -51.68,20.902 -37.47,30.98 33.63,23.871 78.24,70.692 88.32,103.571 1.82,5.929 5.48,10.98 10.18,14.257"
         style="fill:#17282f;fill-opacity:1;fill-rule:nonzero;stroke:none"
         id="path188" />
      <path
         d="m 2549.84,420.012 -15.98,21.578 0.05,0.019 15.98,-21.57 -0.05,-0.027"
         style="fill:#c3c5c2;fill-opacity:1;fill-rule:nonzero;stroke:none"
         id="path190" />
      <path
         d="m 2497.05,389.672 c 1.06,9.137 2.26,19.719 3.58,31.558 l 33.23,20.36 15.98,-21.578 -52.79,-30.34"
         style="fill:#dc834c;fill-opacity:1;fill-rule:nonzero;stroke:none"
         id="path192" />
      <path
         d="m 2691.89,1570.92 c 0,0 -657.42,20.47 -659.67,-254.22 -3.24,-394.809 371.46,-913.231 371.46,-913.231 l 145.88,97.472 c 0,0 -256.77,376.918 -258.97,685.109 193.76,54.7 649.84,20.41 709.07,180.98 48.46,131.36 23.14,203.89 23.14,203.89 h -330.91"
         style="fill:#406fbf;fill-opacity:1;fill-rule:nonzero;stroke:none"
         id="path194" />
      <path
         d="m 2510.81,519.031 c 1.17,12.008 2.36,24.5 3.55,37.399 5.81,-9.571 11.07,-18.051 15.65,-25.321 l -19.2,-12.078 m -200.29,27.098 c -22.18,36.41 -46.75,78.492 -71.8,124.601 -99.24,182.629 -206.48,428.97 -206.52,640.76 0,1.74 0,3.47 0.02,5.21 0.62,75.88 51.22,129.23 124.16,166.72 h 327.1 c -127.58,-42.27 -230.53,-102.17 -220.56,-184.58 23.66,-195.51 39.49,-538.879 47.6,-752.711 m 219.46,673.891 c -0.6,5.4 -1.23,10.75 -1.88,16 34.34,0 78.29,-0.48 127.13,-0.48 9.93,0 20.06,0.02 30.36,0.07 -51.21,-6.21 -104.28,-10.91 -155.61,-15.59"
         style="fill:#3563b7;fill-opacity:1;fill-rule:nonzero;stroke:none"
         id="path196" />
      <path
         d="m 2589.81,475.852 -174.38,-106.801 -54.69,55.5 191.59,120.621 37.48,-69.32"
         style="fill:#17282f;fill-opacity:1;fill-rule:nonzero;stroke:none"
         id="path198" />
      <path
         d="m 2499.41,290.34 c -12.12,-12.59 -22.78,-19.352 -28.99,-18.25 -2.58,0.449 -4.49,2.301 -5.85,5.652 -0.63,1.539 -0.56,2.797 0.23,3.969 3.76,5.621 21.45,8.098 34.61,8.629 z m -12.12,-16.531 c 7.27,5.05 14.27,12.132 19.01,17.382 l 0.38,2.391 -2.03,1.328 c -3.73,0 -36.57,-0.262 -43.56,-10.711 -1.62,-2.418 -1.85,-5.23 -0.66,-8.148 1.97,-4.821 5.07,-7.629 9.21,-8.352 5.28,-0.929 11.57,1.871 17.65,6.11"
         style="fill:#406fbf;fill-opacity:1;fill-rule:nonzero;stroke:none"
         id="path200" />
      <path
         d="m 2473,315.25 c 1.53,1.07 3.19,1.441 5.06,1.141 7.91,-1.262 17.56,-13.77 22.54,-21.399 -10.86,1.028 -27.34,8.067 -30.06,14.52 -0.52,1.226 -0.8,2.918 1.64,5.097 z m 32.92,-24.391 0.7,0.782 -0.05,2.16 c -0.59,1.019 -14.55,24.859 -27.8,26.988 -3.57,0.582 -6.78,-0.391 -9.55,-2.84 -3.32,-2.957 -4.31,-6.57 -2.79,-10.179 4.15,-9.829 27.3,-18.09 38.37,-17.309 l 1.12,0.398"
         style="fill:#406fbf;fill-opacity:1;fill-rule:nonzero;stroke:none"
         id="path202" />
      <path
         d="m 2464.29,213.68 -95.03,4.492 -15.55,224.359 95.02,-4.5 15.56,-224.351"
         style="fill:#f89e63;fill-opacity:1;fill-rule:nonzero;stroke:none"
         id="path204" />
      <path
         d="m 2367.08,234.43 107.57,3.402 c 3.91,0.129 6.95,-2.5 7.3,-6.32 l 7.91,-84.93 c 0.82,-8.812 -7.2,-17.434 -16.22,-17.562 -37.47,-0.532 -55.43,1.101 -102.73,-0.399 -29.1,-0.91 -86.35,-5.242 -126.24,-0.223 -39.02,4.911 -33.79,44.344 -16.43,45.774 41.1,3.367 96.18,31.769 122.54,53.848 4.75,3.98 10.58,6.23 16.3,6.41"
         style="fill:#17282f;fill-opacity:1;fill-rule:nonzero;stroke:none"
         id="path206" />
      <path
         d="m 2352.84,223.949 c -17.01,-3.957 -29.65,-3.82 -34.26,0.481 -1.91,1.781 -2.51,4.371 -1.83,7.922 0.31,1.64 1.06,2.66 2.37,3.218 6.21,2.649 22.39,-4.91 33.72,-11.621 z m -19.16,-7.269 c 8.83,0.269 18.57,2.41 25.4,4.23 l 1.63,1.801 -0.99,2.219 c -3.12,2.031 -30.81,19.699 -42.36,14.742 -2.68,-1.141 -4.4,-3.391 -4.99,-6.492 -0.98,-5.098 0.09,-9.149 3.17,-12.02 3.92,-3.648 10.72,-4.711 18.14,-4.48"
         style="fill:#406fbf;fill-opacity:1;fill-rule:nonzero;stroke:none"
         id="path208" />
      <path
         d="m 2344.27,259.23 c 1.85,0.059 3.44,-0.539 4.85,-1.808 5.94,-5.371 7.23,-21.113 7.25,-30.211 -8.55,6.769 -18.53,21.648 -17.3,28.539 0.23,1.309 0.92,2.879 4.16,3.379 z m 14.31,-38.398 1.01,0.277 1.14,1.84 c 0.06,1.172 1.34,28.77 -8.62,37.77 -2.68,2.441 -5.89,3.371 -9.55,2.832 -4.4,-0.68 -7.19,-3.172 -7.88,-7.02 -1.88,-10.511 13.03,-30.039 22.75,-35.429 l 1.15,-0.27"
         style="fill:#406fbf;fill-opacity:1;fill-rule:nonzero;stroke:none"
         id="path210" />
      <path
         d="m 2457.31,314.34 -2.56,36.84 h 0.06 l 2.57,-36.84 h -0.07"
         style="fill:#c3c5c2;fill-opacity:1;fill-rule:nonzero;stroke:none"
         id="path212" />
      <path
         d="m 2362.64,314.172 -2.84,40.738 94.95,-3.73 2.56,-36.84 -94.67,-0.168"
         style="fill:#dc834c;fill-opacity:1;fill-rule:nonzero;stroke:none"
         id="path214" />
      <path
         d="m 2925.75,1570.92 c 0,0 -687.87,-65.03 -662.83,-272.08 36.14,-298.63 54.01,-942.25 54.01,-942.25 l 175.31,-6.879 c 0,0 74.29,580.508 35.86,886.309 178.01,0 613.79,-12.83 653.53,94.44 35.1,94.76 22.57,240.46 22.57,240.46 h -278.45"
         style="fill:#406fbf;fill-opacity:1;fill-rule:nonzero;stroke:none"
         id="path216" />
      <path
         d="m 2511.6,338.91 -210.41,10.43 -7.56,91.582 230.74,-15.942 -12.77,-86.07"
         style="fill:#17282f;fill-opacity:1;fill-rule:nonzero;stroke:none"
         id="path218" />
      <path
         d="m 2773.07,2177.52 c -1.27,-16.84 -2.61,-31.38 -4.52,-46.85 -1.8,-15.23 -3.88,-30.4 -6.29,-45.53 -4.69,-30.31 -10.61,-60.48 -17.64,-90.72 -14.64,-60.47 -32.47,-120.89 -65.96,-182.2 -8.81,-15.36 -18.38,-30.62 -30.85,-45.87 -12.21,-15.03 -28.15,-30.9 -45.4,-42.29 -34.83,-23.55 -74.46,-34.76 -110.75,-37.35 -36.57,-2.77 -70.83,1.69 -102.85,9.75 -16.04,4.04 -31.56,9.04 -46.63,14.94 -7.55,2.9 -14.95,6.17 -22.3,9.56 -7.58,3.44 -14.1,7.02 -22.5,11.53 l 26.31,66.93 19.11,-2.42 20.03,-2.03 c 13.35,-1.06 26.58,-1.71 39.53,-1.76 25.87,-0.06 50.73,2.48 72.14,8.27 21.47,5.93 38.7,14.9 50.9,26.49 6.34,5.99 10.91,11.33 16.56,19.44 5.53,7.87 10.69,18.04 15.8,28.38 10.11,21.29 18.76,45.62 25.96,71.1 7.55,25.35 13.71,51.87 19.19,78.8 5.65,26.9 10.2,54.34 14.54,81.87 l 5.89,41.4 c 1.74,13.57 3.72,28.1 5.02,40.43 l 144.71,-11.87"
         style="fill:#f89e63;fill-opacity:1;fill-rule:nonzero;stroke:none"
         id="path220" />
      <path
         d="m 2773.69,2258.99 c -70.33,67.95 -157.01,27.84 -191.59,-99.43 -34.58,-127.25 -39.97,-208.73 -39.97,-208.73 l 222.7,-46.06 c 40.48,121.47 80.88,284.63 8.86,354.22"
         style="fill:#17282f;fill-opacity:1;fill-rule:nonzero;stroke:none"
         id="path222" />
      <path
         d="m 2308.55,1830.24 -49.56,19.1 -2.18,-106.12 c 0,0 84.02,-36.33 101.13,5.4 l -6.02,26.47 c -5.17,22.69 -21.18,43.06 -43.37,55.15"
         style="fill:#f89e63;fill-opacity:1;fill-rule:nonzero;stroke:none"
         id="path224" />
      <path
         d="m 2199.59,1846.54 -29.5,-89.04 86.72,-14.28 2.18,106.12 -59.4,-2.8"
         style="fill:#f89e63;fill-opacity:1;fill-rule:nonzero;stroke:none"
         id="path226" />
      <path
         d="m 2275.21,1775.87 c -2.08,0 -4.09,1.13 -5.11,3.11 l -89.34,171.94 c -1.46,2.82 -0.36,6.3 2.46,7.77 2.83,1.45 6.31,0.36 7.78,-2.46 l 89.33,-171.94 c 1.47,-2.82 0.36,-6.3 -2.46,-7.78 l -2.66,-0.64"
         style="fill:#17282f;fill-opacity:1;fill-rule:nonzero;stroke:none"
         id="path228" />
      <path
         d="m 2765.43,2327.14 106.74,30.44 137.28,6.48 c 42.82,2.03 81.53,-24.87 94.91,-65.6 26.17,-79.75 50.24,-195.28 67.78,-294.99 19.66,-111.8 29.91,-279.83 32.06,-432.55 h -512.31 c -11.69,318.49 -52.23,506.8 -70.21,610.99 -7.24,41.99 14.34,83.57 52.8,101.89 l 90.95,43.34"
         style="fill:#17282f;fill-opacity:1;fill-rule:nonzero;stroke:none"
         id="path230" />
      <path
         d="m 2854.01,2565.5 c 21.95,-53.99 8.74,-153.01 -34.63,-124.99 -43.38,28.01 21.23,157.96 34.63,124.99"
         style="fill:#17282f;fill-opacity:1;fill-rule:nonzero;stroke:none"
         id="path232" />
      <path
         d="m 2829.61,2530.98 -41.48,-63.32 -56.47,-86.31 c 3.88,-2.02 12.5,-15.56 17.46,-25.55 10.31,-20.78 18.83,-36.34 -24.8,-66.08 -9.34,-6.37 -15.22,-17.52 -13.1,-28.63 2.56,-13.47 16.02,-26.58 63.12,-18.26 54.55,9.63 91.06,38.47 118.21,65.62 15.69,15.69 12.08,27.5 -3.03,43.75 -42.81,46.03 -55.62,119.52 -59.91,178.78"
         style="fill:#f89e63;fill-opacity:1;fill-rule:nonzero;stroke:none"
         id="path234" />
      <path
         d="m 2537.87,2605.61 c -12.87,-29.09 32.87,-111.51 85.17,-78.19 52.29,33.33 -62.37,129.74 -85.17,78.19"
         style="fill:#17282f;fill-opacity:1;fill-rule:nonzero;stroke:none"
         id="path236" />
      <path
         d="m 2790.07,2225.1 c -1.4,0 -2.63,1.01 -2.85,2.43 -3.87,24.73 -19.84,40.4 -38.34,58.55 -23.19,22.77 -49.48,48.57 -58.13,99.04 -0.26,1.57 0.78,3.05 2.36,3.33 1.66,0.3 3.06,-0.79 3.33,-2.35 8.33,-48.64 33.91,-73.75 56.48,-95.89 18.43,-18.1 35.83,-35.18 40,-61.78 0.24,-1.57 -0.83,-3.05 -2.4,-3.3 l -0.45,-0.03"
         style="fill:#ffffff;fill-opacity:1;fill-rule:nonzero;stroke:none"
         id="path238" />
      <path
         d="m 2811.3,2634.88 c 19.55,-90.58 35.63,-142.69 3.25,-200.33 -48.71,-86.69 -170.76,-74.9 -217.15,8.47 -41.76,75.04 -66.72,210.57 10.99,269.07 76.57,57.64 183.35,13.38 202.91,-77.21"
         style="fill:#f89e63;fill-opacity:1;fill-rule:nonzero;stroke:none"
         id="path240" />
      <path
         d="m 2838.21,2572.69 c -31.17,-44.29 -112.97,37.06 -106.31,91.66 -81.21,-46.23 -169.4,-107.97 -222.94,-55.94 -61.76,60.02 -44.83,146 27.54,153.67 -12.81,-24.97 59.69,-36.06 98.72,2.57 65.5,64.8 168.96,51.23 167.05,-1.28 49.95,19.85 104.47,-93.34 35.94,-190.68"
         style="fill:#17282f;fill-opacity:1;fill-rule:nonzero;stroke:none"
         id="path242" />
      <path
         d="m 2792.72,2748.73 c 19.33,14.37 6.44,65.65 -38.32,80.72 42.56,-5.49 86.66,-37.25 38.32,-80.72"
         style="fill:#17282f;fill-opacity:1;fill-rule:nonzero;stroke:none"
         id="path244" />
      <path
         d="m 2867.07,2576.71 c 1.02,-22.53 -7.47,-43.52 -18.93,-57.12 -17.23,-20.44 -43.79,-4.13 -49.94,21.38 -5.54,22.97 1.64,58.43 24.19,69.41 22.22,10.82 43.52,-7.91 44.68,-33.67"
         style="fill:#f89e63;fill-opacity:1;fill-rule:nonzero;stroke:none"
         id="path246" />
      <path
         d="m 2681.33,2561.46 c 2.42,-7.35 0.53,-14.72 -4.22,-16.46 -4.74,-1.74 -10.54,2.8 -12.94,10.16 -2.42,7.34 -0.53,14.7 4.21,16.44 4.75,1.74 10.54,-2.8 12.95,-10.14"
         style="fill:#17282f;fill-opacity:1;fill-rule:nonzero;stroke:none"
         id="path248" />
      <path
         d="m 2599.35,2531.37 c 2.41,-7.35 0.52,-14.71 -4.22,-16.46 -4.74,-1.74 -10.54,2.82 -12.95,10.16 -2.41,7.34 -0.52,14.71 4.22,16.44 4.74,1.75 10.54,-2.8 12.95,-10.14"
         style="fill:#17282f;fill-opacity:1;fill-rule:nonzero;stroke:none"
         id="path250" />
      <path
         d="m 2627.38,2535.25 c 0,0 0.56,-41.28 -7.61,-64.97 14.7,-5.34 30.92,7.31 30.92,7.31 l -23.31,57.66"
         style="fill:#f57739;fill-opacity:1;fill-rule:nonzero;stroke:none"
         id="path252" />
      <path
         d="m 2671.31,2437.28 c 28.77,9.95 38.65,33.44 39.09,34.53 0.47,1.16 -0.09,2.49 -1.24,2.96 -1.17,0.47 -2.49,-0.09 -2.96,-1.24 -0.12,-0.28 -11.33,-27.04 -44.53,-34.25 -1.23,-0.27 -2,-1.48 -1.72,-2.71 0.26,-1.22 1.47,-1.99 2.7,-1.73 3.06,0.68 5.95,1.49 8.66,2.44"
         style="fill:#17282f;fill-opacity:1;fill-rule:nonzero;stroke:none"
         id="path254" />
      <path
         d="m 2688.83,2593.2 1.67,1.54 c 1.35,2.11 0.75,4.92 -1.36,6.28 -20.87,13.39 -39.98,4.56 -40.78,4.18 -2.23,-0.81 -3.22,-3.78 -2.14,-6.05 1.08,-2.26 3.78,-3.22 6.04,-2.15 0.79,0.36 15.58,6.91 31.97,-3.62 1.44,-0.93 3.2,-0.94 4.6,-0.18"
         style="fill:#17282f;fill-opacity:1;fill-rule:nonzero;stroke:none"
         id="path256" />
      <path
         d="m 2583.1,2578.82 -0.32,2.25 c -0.96,2.31 -3.62,3.41 -5.93,2.45 -22.91,-9.51 -26.53,-30.25 -26.67,-31.12 -0.61,-2.29 1.26,-4.8 3.75,-5.21 2.47,-0.4 4.79,1.27 5.2,3.74 0.16,0.86 3.2,16.74 21.2,24.21 1.57,0.65 2.59,2.1 2.77,3.68"
         style="fill:#17282f;fill-opacity:1;fill-rule:nonzero;stroke:none"
         id="path258" />
      <path
         d="m 3086.68,2295.37 c 9.64,-16.18 18.02,-30.72 26.29,-46.34 8.26,-15.38 16.28,-30.85 24.13,-46.44 15.84,-31.1 30.16,-63.07 43.85,-95.66 13.29,-32.75 25.83,-66.18 36.25,-101.25 10.17,-35.19 19.22,-71.53 22.68,-112.52 1.53,-20.58 1.87,-42.41 -2.26,-67.05 -1.86,-11.43 -5.84,-27.38 -13.26,-42.12 -7.25,-14.82 -18.13,-28.79 -30.52,-39.4 -12.39,-10.79 -25.85,-18.22 -38.62,-23.4 -12.83,-5.2 -25.13,-8.28 -36.77,-10.27 -23.29,-3.98 -44.27,-3.3 -64.09,-1.74 -19.81,1.64 -38.52,4.93 -56.59,9.15 -18.08,4.12 -35.56,9.09 -52.59,14.83 -34.32,11.42 -66.17,24.75 -98.6,41.71 l 25.36,67.31 c 62.17,-11.75 128.97,-22.69 185.02,-19.25 13.76,0.82 26.6,3.2 36.23,6.21 9.71,3.01 15.13,7.49 14.72,8.88 l -0.85,0.96 c -0.27,0.52 -0.31,1.09 0.23,6.27 0.74,8.68 0.07,20.74 -1.94,33.55 -3.94,25.9 -12.08,54.96 -22.33,83.75 -10.23,28.93 -22.08,58.25 -35.26,87.29 -12.8,29.22 -27.14,58.12 -41.44,87.11 -7.24,14.47 -14.67,28.85 -22.28,43.12 l -22.61,41.87 125.25,73.43"
         style="fill:#f89e63;fill-opacity:1;fill-rule:nonzero;stroke:none"
         id="path260" />
      <path
         d="m 3039.83,2362.48 c -96.68,14.71 -144.14,-68.19 -98.66,-191.97 45.47,-123.79 88.24,-193.34 88.24,-193.34 l 208.26,91.37 c -37.32,122.48 -98.83,278.89 -197.84,293.94"
         style="fill:#17282f;fill-opacity:1;fill-rule:nonzero;stroke:none"
         id="path262" />
      <path
         d="m 2818.43,1851.76 -44.67,-13.45 63.3,-89.89 c 0,0 93.86,33.61 74.64,74.41 l -23.59,13.43 c -20.22,11.52 -45.78,23.69 -69.68,15.5"
         style="fill:#f89e63;fill-opacity:1;fill-rule:nonzero;stroke:none"
         id="path264" />
      <path
         d="m 2734.32,1776.35 44.67,-44.67 58.07,16.74 -63.3,89.89 -39.44,-61.96"
         style="fill:#f89e63;fill-opacity:1;fill-rule:nonzero;stroke:none"
         id="path266" />
      <path
         d="m 2846.15,2565.5 c 0,-9.61 -6.43,-17.39 -14.36,-17.39 -7.93,0 -14.36,7.78 -14.36,17.39 0,9.61 6.43,17.4 14.36,17.4 7.93,0 14.36,-7.79 14.36,-17.4"
         style="fill:#ffffff;fill-opacity:1;fill-rule:nonzero;stroke:none"
         id="path268" />
      <path
         d="m 2843.73,2519.5 -8.34,0.28 -5.11,40.1 15.87,3.56 -2.42,-43.94"
         style="fill:#ffffff;fill-opacity:1;fill-rule:nonzero;stroke:none"
         id="path270" />
      <path
         d="m 2901.14,1763.64 c -30.34,0 -56.6,4.43 -72.78,19.03 -11.55,10.42 -17.41,25.58 -17.41,45.08 0,48.16 10,87.22 18.82,121.68 13.95,54.49 24.97,97.52 -8.46,150.55 -53.17,84.34 -37.35,202.25 -0.14,276.11 28.51,56.55 18.82,119.14 15.18,142.7 -0.48,3.08 -0.84,5.45 -1.01,7.01 -0.15,1.59 1,3 2.58,3.17 1.53,0.08 3,-1 3.16,-2.58 0.15,-1.51 0.5,-3.78 0.96,-6.72 3.72,-24.06 13.61,-87.98 -15.71,-146.18 -36.51,-72.45 -52.12,-187.99 -0.14,-270.44 34.75,-55.12 22.89,-101.43 9.16,-155.05 -8.74,-34.13 -18.64,-72.81 -18.64,-120.25 0,-18.05 5.07,-31.39 15.51,-40.81 26.93,-24.29 86.55,-18.12 144.22,-12.17 25.77,2.66 52.42,5.42 75.93,5.42 1.59,0 2.88,-1.29 2.88,-2.88 0,-1.6 -1.29,-2.89 -2.88,-2.89 -23.22,0 -49.71,-2.74 -75.34,-5.39 -25.87,-2.67 -52.13,-5.39 -75.89,-5.39"
         style="fill:#ffffff;fill-opacity:1;fill-rule:nonzero;stroke:none"
         id="path272" />
      <path
         d="m 3172.21,1784.99 h -113.83 c -3.32,0 -6,-2.68 -6,-5.99 v -8.01 c 0,-3.32 2.68,-6.01 6,-6.01 h 113.83 c 3.32,0 6,2.69 6,6.01 v 8.01 c 0,3.31 -2.68,5.99 -6,5.99"
         style="fill:#ffffff;fill-opacity:1;fill-rule:nonzero;stroke:none"
         id="path274" />
      <path
         d="M 3886.39,1698.38 H 1113.61 c -18.32,0 -33.3,14.99 -33.3,33.3 0,18.32 14.98,33.3 33.3,33.3 h 2772.78 c 18.32,0 33.3,-14.98 33.3,-33.3 0,-18.31 -14.98,-33.3 -33.3,-33.3"
         style="fill:#406fbf;fill-opacity:1;fill-rule:nonzero;stroke:none"
         id="path276" />
      <path
         d="m 3886.39,1698.38 h -649.11 c -18.31,0 -33.3,14.99 -33.3,33.3 0,18.32 14.99,33.3 33.3,33.3 h 649.11 c 18.32,0 33.3,-14.98 33.3,-33.3 0,-11.98 -6.41,-22.54 -15.97,-28.4 -5.06,-3.11 -10.99,-4.9 -17.33,-4.9"
         style="fill:#3665b9;fill-opacity:1;fill-rule:nonzero;stroke:none"
         id="path278" />
      <path
         d="m 3855.82,129.398 h 63.87 l -73.52,1568.982 h -88.37 l 98.02,-1568.982"
         style="fill:#17282f;fill-opacity:1;fill-rule:nonzero;stroke:none"
         id="path280" />
      <path
         d="m 3919.69,129.398 h -63.87 L 3757.8,1698.38 h 88.37 l 73.52,-1568.982"
         style="fill:#2b3c43;fill-opacity:1;fill-rule:nonzero;stroke:none"
         id="path282" />
      <path
         d="m 3267.85,129.398 h -63.87 l 73.53,1568.982 h 88.37 L 3267.85,129.398"
         style="fill:#17282f;fill-opacity:1;fill-rule:nonzero;stroke:none"
         id="path284" />
      <path
         d="m 3267.85,129.398 h -63.87 l 63.45,1354.022 h 37.56 v 131.49 h -31.4 l 3.92,83.47 h 88.37 l -74.15,-1186.751 -3.75,-60 -0.15,-2.5 -8.24,-131.891 -0.16,-2.5 -11.58,-185.34"
         style="fill:#405158;fill-opacity:1;fill-rule:nonzero;stroke:none"
         id="path286" />
      <path
         d="m 1732.15,129.398 h 63.87 l -73.53,1568.982 h -88.37 l 98.03,-1568.982"
         style="fill:#17282f;fill-opacity:1;fill-rule:nonzero;stroke:none"
         id="path288" />
      <path
         d="m 1796.02,129.398 h -63.87 l -84.6,1354.022 h 85.02 l 63.45,-1354.022"
         style="fill:#2b3c43;fill-opacity:1;fill-rule:nonzero;stroke:none"
         id="path290" />
      <path
         d="m 1726.41,1614.91 h -87.07 l -5.22,83.47 h 88.37 l 3.92,-83.47"
         style="fill:#2b3c43;fill-opacity:1;fill-rule:nonzero;stroke:none"
         id="path292" />
      <path
         d="m 1144.17,129.398 h -63.86 l 73.52,1568.982 h 88.37 L 1144.17,129.398"
         style="fill:#17282f;fill-opacity:1;fill-rule:nonzero;stroke:none"
         id="path294" />
      <path
         d="m 1144.17,129.398 h -63.86 l 73.52,1568.982 h 88.37 l -5.21,-83.47 h -64.54 v -131.49 h 56.32 l -23.5,-376.09 -7.02,-112.459 -22.98,-367.851 -10.96,-175.391 -0.16,-2.5 -19.98,-319.731"
         style="fill:#405158;fill-opacity:1;fill-rule:nonzero;stroke:none"
         id="path296" />
      <path
         d="m 1172.45,1483.42 h 2132.54 v 131.488 H 1172.45 Z"
         style="fill:#17282f;fill-opacity:1;fill-rule:nonzero;stroke:none"
         id="path298" />
      <path
         d="M 3304.99,1483.42 H 1172.45 v 131.49 h 2132.54 v -131.49"
         style="fill:#405158;fill-opacity:1;fill-rule:nonzero;stroke:none"
         id="path300" />
      <path
         d="m 1523.29,1853.46 c -7.73,0 -13.99,-6.26 -13.99,-13.99 v -60.5 c 0,-7.73 6.26,-13.99 13.99,-13.99 h 453.53 c 2.52,0 4.56,2.04 4.56,4.56 v 79.37 c 0,2.51 -2.04,4.55 -4.56,4.55 h -453.53"
         style="fill:#406fbf;fill-opacity:1;fill-rule:nonzero;stroke:none"
         id="path302" />
      <path
         d="M 1981.38,1773.41 H 1791.7 c -4.45,0 -8.07,3.61 -8.07,8.08 v 55.46 c 0,4.47 3.62,8.08 8.07,8.08 h 189.68 v -71.62"
         style="fill:#e6effa;fill-opacity:1;fill-rule:nonzero;stroke:none"
         id="path304" />
      <path
         d="m 1760.44,1853.46 h -458.09 c -7.73,0 -13.99,-6.26 -13.99,-13.99 v -60.5 c 0,-7.73 6.26,-13.99 13.99,-13.99 h 458.09 c 7.72,0 13.98,6.26 13.98,13.99 v 60.5 c 0,7.73 -6.26,13.99 -13.98,13.99"
         style="fill:#406fbf;fill-opacity:1;fill-rule:nonzero;stroke:none"
         id="path306" />
      <path
         d="m 1760.44,1764.98 h -124.92 c 3.15,0 5.7,2.56 5.7,5.7 v 77.07 c 0,3.16 -2.55,5.71 -5.7,5.71 h 42.91 v 0 h 82.01 c 7.72,0 13.98,-6.26 13.98,-13.99 v -60.5 c 0,-7.73 -6.26,-13.99 -13.98,-13.99 v 0"
         style="fill:#3563b7;fill-opacity:1;fill-rule:nonzero;stroke:none"
         id="path308" />
      <path
         d="m 1566.07,1764.98 h -30.93 c 3.15,0 5.7,2.56 5.7,5.7 v 77.07 c 0,3.16 -2.55,5.71 -5.7,5.71 h 30.93 c -3.15,0 -5.7,-2.55 -5.7,-5.71 v -77.07 c 0,-3.14 2.55,-5.7 5.7,-5.7"
         style="fill:#3563b7;fill-opacity:1;fill-rule:nonzero;stroke:none"
         id="path310" />
      <path
         d="m 1465.69,1764.98 h -163.34 c -7.73,0 -13.99,6.26 -13.99,13.99 v 60.5 c 0,7.73 6.26,13.99 13.99,13.99 h 163.34 c -3.15,0 -5.7,-2.55 -5.7,-5.71 v -77.07 c 0,-3.14 2.55,-5.7 5.7,-5.7"
         style="fill:#3563b7;fill-opacity:1;fill-rule:nonzero;stroke:none"
         id="path312" />
      <path
         d="m 1535.14,1764.98 h -69.45 c -3.15,0 -5.7,2.56 -5.7,5.7 v 77.07 c 0,3.16 2.55,5.71 5.7,5.71 h 69.45 c 3.15,0 5.7,-2.55 5.7,-5.71 v -77.07 c 0,-3.14 -2.55,-5.7 -5.7,-5.7"
         style="fill:#3b69bc;fill-opacity:1;fill-rule:nonzero;stroke:none"
         id="path314" />
      <path
         d="m 1635.52,1764.98 h -69.45 c -3.15,0 -5.7,2.56 -5.7,5.7 v 77.07 c 0,3.16 2.55,5.71 5.7,5.71 h 69.45 c 3.15,0 5.7,-2.55 5.7,-5.71 v -77.07 c 0,-3.14 -2.55,-5.7 -5.7,-5.7"
         style="fill:#3b69bc;fill-opacity:1;fill-rule:nonzero;stroke:none"
         id="path316" />
      <path
         d="m 1441.28,1962.37 c -7.73,0 -13.99,-6.26 -13.99,-13.98 v -80.94 c 0,-7.72 6.26,-13.99 13.99,-13.99 h 491.29 c 2.51,0 4.55,2.04 4.55,4.56 v 99.8 c 0,2.52 -2.04,4.55 -4.55,4.55 h -491.29"
         style="fill:#406fbf;fill-opacity:1;fill-rule:nonzero;stroke:none"
         id="path318" />
      <path
         d="M 1937.12,1861.9 H 1709.7 c -4.46,0 -8.08,3.61 -8.08,8.06 v 75.92 c 0,4.45 3.62,8.07 8.08,8.07 h 227.42 v -92.05"
         style="fill:#e6effa;fill-opacity:1;fill-rule:nonzero;stroke:none"
         id="path320" />
      <path
         d="m 1678.43,1962.37 h -385.24 c -7.73,0 -13.99,-6.26 -13.99,-13.98 v -80.94 c 0,-7.72 6.26,-13.99 13.99,-13.99 h 385.24 c 7.73,0 13.99,6.27 13.99,13.99 v 80.94 c 0,7.72 -6.26,13.98 -13.99,13.98"
         style="fill:#406fbf;fill-opacity:1;fill-rule:nonzero;stroke:none"
         id="path322" />
      <path
         d="m 1678.43,1853.46 h -385.24 c -7.73,0 -13.99,6.27 -13.99,13.99 v 80.94 c 0,7.72 6.26,13.98 13.99,13.98 h 68.04 v 0 h 43.88 v 0 h 14.51 v 0 h 258.81 c 7.73,0 13.99,-6.26 13.99,-13.98 v -80.94 c 0,-7.72 -6.26,-13.99 -13.99,-13.99 v 0 m -318.19,87.31 c -4.7,0 -8.52,-3.82 -8.52,-8.52 v -48.67 c 0,-4.69 3.82,-8.51 8.52,-8.51 h 282.06 c 4.71,0 8.53,3.82 8.53,8.51 v 48.67 c 0,4.7 -3.82,8.52 -8.53,8.52 h -282.06"
         style="fill:#5d87cd;fill-opacity:1;fill-rule:nonzero;stroke:none"
         id="path324" />
      <path
         d="m 1642.3,1875.07 h -282.06 c -4.7,0 -8.52,3.82 -8.52,8.51 v 48.67 c 0,4.7 3.82,8.52 8.52,8.52 h 282.06 c 4.71,0 8.53,-3.82 8.53,-8.52 v -48.67 c 0,-4.69 -3.82,-8.51 -8.53,-8.51"
         style="fill:#4a77c4;fill-opacity:1;fill-rule:nonzero;stroke:none"
         id="path326" />
      <path
         d="m 1585.42,2014.55 c -7.73,0 -13.99,-3.69 -13.99,-8.25 v -35.67 c 0,-4.55 6.26,-8.26 13.99,-8.26 h 453.53 c 2.51,0 4.56,1.21 4.56,2.69 v 46.81 c 0,1.48 -2.05,2.68 -4.56,2.68 h -453.53"
         style="fill:#406fbf;fill-opacity:1;fill-rule:nonzero;stroke:none"
         id="path328" />
      <path
         d="m 2043.51,1967.34 h -191.55 c -3.43,0 -6.2,2.79 -6.2,6.21 v 29.83 c 0,3.43 2.77,6.2 6.2,6.2 h 191.55 v -42.24"
         style="fill:#e6effa;fill-opacity:1;fill-rule:nonzero;stroke:none"
         id="path330" />
      <path
         d="m 1825.82,2014.55 h -464.59 c -5.93,0 -10.74,-4.8 -10.74,-10.74 v -30.69 c 0,-5.93 4.81,-10.75 10.74,-10.75 h 464.59 c 5.93,0 10.74,4.82 10.74,10.75 v 30.69 c 0,5.94 -4.81,10.74 -10.74,10.74"
         style="fill:#406fbf;fill-opacity:1;fill-rule:nonzero;stroke:none"
         id="path332" />
      <path
         d="m 1825.82,1962.37 h -28.98 c 1.16,0 2.09,0.94 2.09,2.1 v 47.99 c 0,1.15 -0.93,2.09 -2.09,2.09 h 28.98 c 5.93,0 10.74,-4.8 10.74,-10.74 v -30.69 c 0,-5.93 -4.81,-10.75 -10.74,-10.75 v 0 m -43.22,0 h -362.98 c 1.16,0 2.1,0.95 2.1,2.11 v 47.96 c 0,1.16 -0.94,2.11 -2.1,2.11 h 324.19 v 0 h 38.79 c -1.16,0 -2.09,-0.94 -2.09,-2.09 v -47.99 c 0,-1.16 0.93,-2.1 2.09,-2.1 m -377.49,0 h -43.88 c -5.93,0 -10.74,4.82 -10.74,10.75 v 30.69 c 0,5.94 4.81,10.74 10.74,10.74 h 43.88 c -1.16,0 -2.11,-0.95 -2.11,-2.11 v -47.96 c 0,-1.16 0.95,-2.11 2.11,-2.11"
         style="fill:#3563b7;fill-opacity:1;fill-rule:nonzero;stroke:none"
         id="path334" />
      <path
         d="m 1419.62,1962.37 h -14.51 c -1.16,0 -2.11,0.95 -2.11,2.11 v 47.96 c 0,1.16 0.95,2.11 2.11,2.11 h 14.51 c 1.16,0 2.1,-0.95 2.1,-2.11 v -47.96 c 0,-1.16 -0.94,-2.11 -2.1,-2.11"
         style="fill:#3b69bc;fill-opacity:1;fill-rule:nonzero;stroke:none"
         id="path336" />
      <path
         d="m 1796.84,1962.37 h -14.24 c -1.16,0 -2.09,0.94 -2.09,2.1 v 47.99 c 0,1.15 0.93,2.09 2.09,2.09 h 14.24 c 1.16,0 2.09,-0.94 2.09,-2.09 v -47.99 c 0,-1.16 -0.93,-2.1 -2.09,-2.1"
         style="fill:#3b69bc;fill-opacity:1;fill-rule:nonzero;stroke:none"
         id="path338" />
      <path
         d="m 1503.41,2089.95 c -7.73,0 -13.99,-3.7 -13.99,-8.25 v -58.9 c 0,-4.56 6.26,-8.25 13.99,-8.25 h 491.29 c 2.51,0 4.55,1.2 4.55,2.69 v 70.02 c 0,1.48 -2.04,2.69 -4.55,2.69 h -491.29"
         style="fill:#406fbf;fill-opacity:1;fill-rule:nonzero;stroke:none"
         id="path340" />
      <path
         d="m 1999.25,2019.52 h -229.3 c -3.42,0 -6.2,2.78 -6.2,6.2 v 53.06 c 0,3.42 2.78,6.2 6.2,6.2 h 229.3 v -65.46"
         style="fill:#e6effa;fill-opacity:1;fill-rule:nonzero;stroke:none"
         id="path342" />
      <path
         d="m 1743.81,2089.95 h -391.74 c -5.93,0 -10.74,-4.81 -10.74,-10.74 v -53.92 c 0,-5.93 4.81,-10.74 10.74,-10.74 h 391.74 c 5.93,0 10.74,4.81 10.74,10.74 v 53.92 c 0,5.93 -4.81,10.74 -10.74,10.74"
         style="fill:#406fbf;fill-opacity:1;fill-rule:nonzero;stroke:none"
         id="path344" />
      <path
         d="m 1743.81,2014.55 h -391.74 c -5.93,0 -10.74,4.81 -10.74,10.74 v 53.92 c 0,5.93 4.81,10.74 10.74,10.74 h 391.74 c 5.93,0 10.74,-4.81 10.74,-10.74 v -53.92 c 0,-5.93 -4.81,-10.74 -10.74,-10.74 v 0"
         style="fill:#3b69bb;fill-opacity:1;fill-rule:nonzero;stroke:none"
         id="path346" />
      <path
         d="m 2599.19,1781.63 h -412.74 c -4.57,0 -8.32,-3.75 -8.32,-8.32 0,-4.58 3.75,-8.33 8.32,-8.33 h 412.74 c 4.58,0 8.32,3.75 8.32,8.33 0,4.57 -3.74,8.32 -8.32,8.32"
         style="fill:#ffffff;fill-opacity:1;fill-rule:nonzero;stroke:none"
         id="path348" />
      <path
         d="m 3406.6,1801.43 h 271.19 l 24.5,-35.47 h -320.2 l 24.51,35.47"
         style="fill:#17282f;fill-opacity:1;fill-rule:nonzero;stroke:none"
         id="path350" />
      <path
         d="m 3825.4,2407.29 c 0,-20.15 -16.34,-36.49 -36.49,-36.49 -20.15,0 -36.48,16.34 -36.48,36.49 0,20.14 16.33,36.48 36.48,36.48 20.15,0 36.49,-16.34 36.49,-36.48"
         style="fill:#040606;fill-opacity:1;fill-rule:nonzero;stroke:none"
         id="path352" />
      <path
         d="m 3551.15,1777.42 c -1.49,0 -3.01,0.3 -4.47,0.92 -5.87,2.47 -8.61,9.24 -6.13,15.1 l 261.28,618.33 c 2.47,5.87 9.21,8.64 15.09,6.13 5.87,-2.47 8.62,-9.24 6.14,-15.1 l -261.28,-618.33 c -1.86,-4.4 -6.13,-7.05 -10.63,-7.05"
         style="fill:#17282f;fill-opacity:1;fill-rule:nonzero;stroke:none"
         id="path354" />
      <path
         d="m 3812.43,2395.76 c -2.4,0 -4.83,0.74 -6.9,2.3 l -474.55,355.71 c -5.1,3.83 -6.14,11.05 -2.31,16.14 3.8,5.09 11.04,6.14 16.13,2.32 l 474.56,-355.73 c 5.09,-3.81 6.13,-11.03 2.3,-16.13 -2.26,-3.02 -5.72,-4.61 -9.23,-4.61"
         style="fill:#17282f;fill-opacity:1;fill-rule:nonzero;stroke:none"
         id="path356" />
      <path
         d="m 3848.93,2407.29 c 0,-20.15 -16.34,-36.49 -36.48,-36.49 -20.16,0 -36.49,16.34 -36.49,36.49 0,20.14 16.33,36.48 36.49,36.48 20.14,0 36.48,-16.34 36.48,-36.48"
         style="fill:#17282f;fill-opacity:1;fill-rule:nonzero;stroke:none"
         id="path358" />
      <path
         d="m 3363.64,2737.26 c -14.22,-14.21 -37.27,-14.21 -51.49,0 -14.21,14.22 -14.21,37.27 0,51.48 14.22,14.22 37.27,14.22 51.49,0 14.22,-14.21 14.22,-37.26 0,-51.48"
         style="fill:#17282f;fill-opacity:1;fill-rule:nonzero;stroke:none"
         id="path360" />
      <path
         d="m 3286.88,2596.66 c -31.85,-31.86 -83.48,-31.86 -115.33,0 -31.85,31.85 -31.85,83.48 0,115.33 31.85,31.85 83.48,31.85 115.33,0 31.85,-31.85 31.85,-83.48 0,-115.33"
         style="fill:#406fbf;fill-opacity:1;fill-rule:nonzero;stroke:none"
         id="path362" />
      <path
         d="m 3269.98,2583.67 -111.42,111.42 v 0 l 111.42,-111.42 v 0"
         style="fill:#b8d2ef;fill-opacity:1;fill-rule:nonzero;stroke:none"
         id="path364" />
      <path
         d="m 3337.9,2763 c -68.28,68.28 -178.97,68.28 -247.25,0 l 247.25,-247.25 c 68.27,68.28 68.27,178.98 0,247.25"
         style="fill:#17282f;fill-opacity:1;fill-rule:nonzero;stroke:none"
         id="path366" />
      <path
         d="m 2885.72,2358.22 v 207.8 l 68.71,66.05 v -270.6 l -68.71,-3.25"
         style="fill:#dde4ec;fill-opacity:1;fill-rule:nonzero;stroke:none"
         id="path368" />
      <path
         d="m 3201.87,2052.41 c -0.05,0.12 -0.09,0.24 -0.13,0.36 l 0.27,0.12 -0.14,-0.48 m 19.54,66.55 c -38.14,111.28 -95.78,230.48 -181.58,243.52 -7.44,1.13 -14.61,1.69 -21.45,1.69 -0.78,0 -1.55,-0.01 -2.31,-0.02 -0.7,0.01 -1.41,0.02 -2.11,0.02 -1.49,0 -3,-0.03 -4.51,-0.11 l -55.02,-2.59 v 270.6 l 136.22,130.93 67.91,-67.91 c -7.27,-12.57 -10.9,-26.67 -10.9,-40.77 0,-20.87 7.97,-41.74 23.89,-57.66 15.92,-15.93 36.79,-23.89 57.67,-23.89 14.09,0 28.19,3.63 40.76,10.9 l 67.92,-67.92 -116.49,-396.79"
         style="fill:#eaf1fa;fill-opacity:1;fill-rule:nonzero;stroke:none"
         id="path370" />
      <path
         d="m 2855.18,2407.61 c -3.96,9.58 -7.33,19.49 -10.22,29.58 0.11,0.89 0.21,1.78 0.31,2.67 3.88,3.11 7.19,7.8 9.91,13.64 v -45.89"
         style="fill:#dde4ec;fill-opacity:1;fill-rule:nonzero;stroke:none"
         id="path372" />
      <path
         d="m 2884.28,2358.15 c -12.14,14.53 -21.65,31.4 -29.1,49.46 v 45.89 c 9.81,21.06 11.95,57.09 5.84,87.93 0.18,0.45 0.36,0.9 0.53,1.36 l 24.17,23.23 v -207.8 l -1.44,-0.07"
         style="fill:#d3d9e1;fill-opacity:1;fill-rule:nonzero;stroke:none"
         id="path374" />
      <path
         d="m 2680.34,1764.98 h -33.65 c 0.38,0.46 0.75,0.91 1.12,1.37 11.44,13.99 20.44,27.98 28.65,42.05 1.34,-14.09 2.64,-28.57 3.88,-43.42 m -277.1,28.23 c -0.3,0 -0.59,0 -0.88,0 -12.95,0.05 -26.18,0.7 -39.53,1.76 l -19.62,1.99 c -7.92,13.58 -19.93,25.26 -34.66,33.28 l -49.56,19.1 -12.16,-0.57 -8.11,15.61 v 79.73 l 450.34,432.88 c 1.14,-0.21 2.27,-0.41 3.41,-0.59 6.73,-30.01 19.96,-50.73 34.53,-67.58 l -38.39,-18.29 c -44.57,-7.72 -85.32,-52.98 -106.51,-130.97 -34.58,-127.25 -39.97,-208.73 -39.97,-208.73 l 40.33,-8.34 c -6.94,-23.88 -15.18,-46.64 -24.7,-66.7 -5.11,-10.34 -10.27,-20.51 -15.8,-28.38 -5.65,-8.11 -10.22,-13.45 -16.56,-19.44 -12.2,-11.59 -29.43,-20.56 -50.9,-26.49 -21.17,-5.72 -45.71,-8.27 -71.26,-8.27 m 329.18,518.2 c -14.13,16.13 -27.07,35.83 -33.83,64.16 4.68,-0.52 9.37,-0.78 14.05,-0.78 7.87,0 15.71,0.74 23.41,2.24 3.51,-4.42 7.83,-11.34 11.2,-17.63 0.66,-1.23 1.28,-2.44 1.85,-3.61 0.15,-0.29 0.3,-0.57 0.45,-0.86 5.56,-11.19 10.38,-20.92 6.45,-32.29 l -23.58,-11.23"
         style="fill:#eaf1fa;fill-opacity:1;fill-rule:nonzero;stroke:none"
         id="path376" />
      <path
         d="m 2172.57,1764.98 h -120.21 l 150.06,144.25 31.73,-61.06 -34.56,-1.63 -27.02,-81.56 m 66.15,99.4 -27.63,53.18 27.63,26.55 v -79.73"
         style="fill:#e6eef7;fill-opacity:1;fill-rule:nonzero;stroke:none"
         id="path378" />
      <path
         d="m 2646.69,1764.98 h -47.5 c 4.58,0 8.32,3.75 8.32,8.33 0,4.57 -3.74,8.32 -8.32,8.32 h -249.08 c -1.73,5.3 -4.05,10.44 -6.9,15.33 l 19.62,-1.99 c 13.35,-1.06 26.58,-1.71 39.53,-1.76 0.29,0 0.58,0 0.88,0 25.55,0 50.09,2.55 71.26,8.27 21.47,5.93 38.7,14.9 50.9,26.49 6.34,5.99 10.91,11.33 16.56,19.44 5.53,7.87 10.69,18.04 15.8,28.38 9.52,20.06 17.76,42.82 24.7,66.7 l 48.47,-10.03 c 0,-0.02 0,-0.04 -0.01,-0.06 l 32.38,-6.69 c 4.64,-35.86 9.11,-74.88 13.16,-117.31 -8.21,-14.07 -17.21,-28.06 -28.65,-42.05 -0.37,-0.46 -0.74,-0.91 -1.12,-1.37"
         style="fill:#f9a87b;fill-opacity:1;fill-rule:nonzero;stroke:none"
         id="path380" />
      <path
         d="m 2630.93,1932.46 -48.47,10.03 -40.33,8.34 c 0,0 5.39,81.48 39.97,208.73 21.19,77.99 61.94,123.25 106.51,130.97 l -14.13,-6.73 c -38.46,-18.32 -60.04,-59.9 -52.8,-101.89 6.94,-40.19 17.23,-92.89 27.93,-160.76 -8.22,-27.5 -14.5,-57.87 -18.68,-88.69"
         style="fill:#364a5b;fill-opacity:1;fill-rule:nonzero;stroke:none"
         id="path382" />
      <path
         d="m 2663.3,1925.71 -32.38,6.69 c 0.01,0.02 0.01,0.04 0.01,0.06 l 32.37,-6.69 c 0,-0.01 0,-0.05 0,-0.06"
         style="fill:#bb8164;fill-opacity:1;fill-rule:nonzero;stroke:none"
         id="path384" />
      <path
         d="m 2663.3,1925.77 -32.37,6.69 c 4.18,30.82 10.46,61.19 18.68,88.69 4.56,-28.97 9.2,-60.69 13.69,-95.38"
         style="fill:#2d3e4b;fill-opacity:1;fill-rule:nonzero;stroke:none"
         id="path386" />
      <path
         d="m 2350.11,1781.63 h -69.13 c 0,0.9 -0.21,1.81 -0.65,2.66 l -21.81,41.98 0.47,23.07 49.56,-19.1 c 14.73,-8.02 26.74,-19.7 34.66,-33.28 2.85,-4.89 5.17,-10.03 6.9,-15.33 m -81.39,0 h -11.12 l 0.42,20.58 10.7,-20.58"
         style="fill:#f9a87b;fill-opacity:1;fill-rule:nonzero;stroke:none"
         id="path388" />
      <path
         d="m 2186.45,1764.98 h -13.88 l 27.02,81.56 34.56,1.63 23.87,-45.96 -0.42,-20.58 h -71.15 c -4.57,0 -8.32,-3.75 -8.32,-8.32 0,-4.58 3.75,-8.33 8.32,-8.33 m 72.07,61.29 -11.69,22.5 12.16,0.57 -0.47,-23.07"
         style="fill:#f9a87b;fill-opacity:1;fill-rule:nonzero;stroke:none"
         id="path390" />
      <path
         d="m 2280.98,1781.63 h -12.26 l -10.7,20.58 -23.87,45.96 -31.73,61.06 8.67,8.33 27.63,-53.18 8.11,-15.61 11.69,-22.5 21.81,-41.98 c 0.44,-0.85 0.65,-1.76 0.65,-2.66"
         style="fill:#364a5b;fill-opacity:1;fill-rule:nonzero;stroke:none"
         id="path392" />
      <path
         d="m 2825.4,1764.98 v 0 l -51.64,73.33 -39.44,-61.96 11.36,-11.37 h -65.34 c -1.24,14.85 -2.54,29.33 -3.88,43.42 -4.05,42.43 -8.52,81.45 -13.16,117.31 0,0.01 0,0.05 0,0.06 -4.49,34.69 -9.13,66.41 -13.69,95.38 -10.7,67.87 -20.99,120.57 -27.93,160.76 -7.24,41.99 14.34,83.57 52.8,101.89 l 14.13,6.73 38.39,18.29 c 3.07,-3.56 6.21,-6.94 9.36,-10.21 -3.48,-2.82 -7.48,-5.78 -12.04,-8.89 -9.34,-6.37 -15.22,-17.52 -13.1,-28.63 2.01,-10.54 10.69,-20.86 36.94,-20.86 7.29,0 15.94,0.79 26.18,2.6 2.69,0.48 5.33,1 7.93,1.56 2.2,-4.98 3.86,-10.31 4.83,-16.15 0.17,-44.83 10.09,-90 34.21,-128.26 33.43,-53.03 22.41,-96.06 8.46,-150.55 -7.44,-29.06 -15.72,-61.4 -18.13,-99.72 l -37.88,-11.4 51.64,-73.33 m 209.69,57.31 c -48.52,0 -103.08,8.69 -154.92,18.34 -13.84,7.33 -29.54,13.81 -45.21,13.81 -5.54,0 -11.08,-0.81 -16.53,-2.68 l -0.9,-0.27 c 2.55,36.88 10.59,68.25 17.82,96.51 13.73,53.62 25.59,99.93 -9.16,155.05 -23.32,36.99 -33.04,80.65 -33.36,124.09 0.12,0.4 0.16,0.84 0.09,1.29 -0.03,0.21 -0.07,0.42 -0.1,0.62 -0.01,6.04 0.17,12.07 0.51,18.07 44.24,12.28 75.35,37.46 99.22,61.33 15.69,15.69 12.08,27.5 -3.03,43.75 -1.8,1.93 -3.55,3.92 -5.24,5.95 l 1.44,0.07 68.71,3.25 55.02,2.59 c 1.51,0.08 3.02,0.11 4.51,0.11 0.7,0 1.41,-0.01 2.11,-0.02 -80.39,-1.48 -116.48,-80.48 -74.9,-193.64 23.69,-64.51 46.66,-114.29 63.21,-147.17 0.24,-23.57 2.81,-45.67 7.89,-64.25 12.25,-44.88 48.52,-57.18 84.57,-57.18 1.36,0 2.73,0.01 4.09,0.05 1.79,-7.93 3.28,-15.68 4.42,-23.16 2.01,-12.81 2.68,-24.87 1.94,-33.55 -0.54,-5.18 -0.5,-5.75 -0.23,-6.27 l 0.85,-0.96 c 0.41,-1.39 -5.01,-5.87 -14.72,-8.88 -9.63,-3.01 -22.47,-5.39 -36.23,-6.21 -7.13,-0.44 -14.43,-0.64 -21.87,-0.64 m -294.32,480.07 c -2.81,2.9 -5.6,5.91 -8.35,9.05 l 23.58,11.23 c -2.12,-6.12 -6.78,-12.72 -15.23,-20.28"
         style="fill:#364a5b;fill-opacity:1;fill-rule:nonzero;stroke:none"
         id="path394" />
      <path
         d="m 3096.84,1901.91 c -36.05,0 -72.32,12.3 -84.57,57.18 -5.08,18.58 -7.65,40.68 -7.89,64.25 15.22,-30.22 25.03,-46.17 25.03,-46.17 l 41.39,18.16 c 4.29,-10.96 8.37,-21.9 12.22,-32.78 7.29,-20.47 13.51,-41.08 17.91,-60.59 -1.36,-0.04 -2.73,-0.05 -4.09,-0.05"
         style="fill:#2d3e4b;fill-opacity:1;fill-rule:nonzero;stroke:none"
         id="path396" />
      <path
         d="m 2845.27,2439.86 c 3.37,31.12 -0.05,58.64 -2.46,74.74 1.85,1.32 3.64,2.98 5.33,4.99 5.06,6.01 9.54,13.46 12.88,21.84 6.11,-30.84 3.97,-66.87 -5.84,-87.93 v 0 c -2.72,-5.84 -6.03,-10.53 -9.91,-13.64 m -4.67,14.23 c -3.41,14.68 -5.91,29.51 -7.75,43.99 0.2,4.1 0.24,8.26 0.15,12.49 1.48,0.21 2.96,0.58 4.42,1.13 1.96,-13.5 4.35,-34.06 3.18,-57.61"
         style="fill:#364a5b;fill-opacity:1;fill-rule:nonzero;stroke:none"
         id="path398" />
      <path
         d="m 2748.16,2240.23 c -26.25,0 -34.93,10.32 -36.94,20.86 -2.12,11.11 3.76,22.26 13.1,28.63 4.56,3.11 8.56,6.07 12.04,8.89 4.19,-4.35 8.4,-8.49 12.52,-12.53 13.92,-13.66 26.41,-25.92 33.39,-41.69 -2.6,-0.56 -5.24,-1.08 -7.93,-1.56 -10.24,-1.81 -18.89,-2.6 -26.18,-2.6 m 39.41,6.38 c -7.51,16.95 -20.79,29.98 -34.65,43.6 -3.99,3.92 -8.08,7.93 -12.15,12.15 8.45,7.56 13.11,14.16 15.23,20.28 3.93,11.37 -0.89,21.1 -6.45,32.29 0.76,-1.48 1.47,-2.96 2.26,-4.44 14.41,11.51 28.02,30.79 34.81,50.29 10.74,8.88 20.25,20.1 27.93,33.77 11.91,21.2 17.26,41.64 18.3,63.53 1.84,-14.48 4.34,-29.31 7.75,-43.99 -1.21,-24.31 -6.22,-51.81 -19.43,-78 -18.02,-35.77 -31.02,-81.87 -33.6,-129.48 m 5.76,0.51 c 2.64,46.45 15.39,91.42 33,126.37 10.69,21.21 16.16,43.18 18.63,63.7 2.89,-10.09 6.26,-20 10.22,-29.58 v 0 c 7.45,-18.06 16.96,-34.93 29.1,-49.46 1.69,-2.03 3.44,-4.02 5.24,-5.95 15.11,-16.25 18.72,-28.06 3.03,-43.75 -23.87,-23.87 -54.98,-49.05 -99.22,-61.33 m -46.08,112.28 c -3.37,6.29 -7.69,13.21 -11.2,17.63 0,0 0,0 0.01,0 3.51,-4.39 7.84,-11.32 11.19,-17.63"
         style="fill:#f9a87b;fill-opacity:1;fill-rule:nonzero;stroke:none"
         id="path400" />
      <path
         d="m 2749.55,2354.93 c -0.15,0.29 -0.3,0.57 -0.45,0.86 -0.57,1.17 -1.19,2.38 -1.85,3.61 0.67,-1.23 1.29,-2.44 1.87,-3.6 0.14,-0.29 0.28,-0.58 0.43,-0.87"
         style="fill:#bcc4cd;fill-opacity:1;fill-rule:nonzero;stroke:none"
         id="path402" />
      <path
         d="m 2751.81,2350.49 c -0.79,1.48 -1.5,2.96 -2.26,4.44 -0.15,0.29 -0.29,0.58 -0.43,0.87 -0.58,1.16 -1.2,2.37 -1.87,3.6 -3.35,6.31 -7.68,13.24 -11.19,17.63 18.2,3.56 35.59,11.38 50.56,23.75 -6.79,-19.5 -20.4,-38.78 -34.81,-50.29"
         style="fill:#d5906c;fill-opacity:1;fill-rule:nonzero;stroke:none"
         id="path404" />
      <path
         d="m 2792.83,2227.14 c -0.01,0.64 -0.01,1.27 -0.01,1.91 0.03,-0.2 0.07,-0.41 0.1,-0.62 0.07,-0.45 0.03,-0.89 -0.09,-1.29 m -5.73,1.1 c -0.97,5.84 -2.63,11.17 -4.83,16.15 -6.98,15.77 -19.47,28.03 -33.39,41.69 -4.12,4.04 -8.33,8.18 -12.52,12.53 -3.15,3.27 -6.29,6.65 -9.36,10.21 -14.57,16.85 -27.8,37.57 -34.53,67.58 2.04,-0.33 4.08,-0.6 6.12,-0.83 6.76,-28.33 19.7,-48.03 33.83,-64.16 2.75,-3.14 5.54,-6.15 8.35,-9.05 4.07,-4.22 8.16,-8.23 12.15,-12.15 13.86,-13.62 27.14,-26.65 34.65,-43.6 -0.33,-6.11 -0.49,-12.24 -0.47,-18.37"
         style="fill:#eff6fc;fill-opacity:1;fill-rule:nonzero;stroke:none"
         id="path406" />
      <path
         d="m 2712.64,2374.79 c -4.68,0 -9.37,0.26 -14.05,0.78 -2.04,0.23 -4.08,0.5 -6.12,0.83 -1.14,0.18 -2.27,0.38 -3.41,0.59 l 138.85,133.46 c 0.69,-0.06 1.39,-0.1 2.08,-0.1 1,0 2.01,0.07 3.01,0.22 0.09,-4.23 0.05,-8.39 -0.15,-12.49 -1.04,-21.89 -6.39,-42.33 -18.3,-63.53 -7.68,-13.67 -17.19,-24.89 -27.93,-33.77 -14.97,-12.37 -32.36,-20.19 -50.56,-23.75 -0.01,0 -0.01,0 -0.01,0 -7.7,-1.5 -15.54,-2.24 -23.41,-2.24"
         style="fill:#f9a87b;fill-opacity:1;fill-rule:nonzero;stroke:none"
         id="path408" />
      <path
         d="m 2829.99,2510.35 c -0.69,0 -1.39,0.04 -2.08,0.1 l 8.47,8.14 c 0.31,-2.02 0.67,-4.33 1.04,-6.89 -1.46,-0.55 -2.94,-0.92 -4.42,-1.13 -1,-0.15 -2.01,-0.22 -3.01,-0.22 m 12.82,4.25 c -0.26,1.8 -0.52,3.45 -0.75,4.96 l 1.67,-0.06 0.36,6.5 17.46,16.79 c -0.17,-0.46 -0.35,-0.91 -0.53,-1.36 -3.34,-8.38 -7.82,-15.83 -12.88,-21.84 -1.69,-2.01 -3.48,-3.67 -5.33,-4.99"
         style="fill:#f9a87b;fill-opacity:1;fill-rule:nonzero;stroke:none"
         id="path410" />
      <path
         d="m 3117.49,1764.98 h -183.84 c 14.25,1.04 28.87,2.55 43.38,4.05 25.63,2.65 52.12,5.39 75.34,5.39 h 0.01 v -3.43 c 0,-3.32 2.68,-6.01 6,-6.01 h 59.11 m -242.29,0 h -2.5 c 0.15,0.09 0.3,0.17 0.44,0.25 0.69,-0.09 1.37,-0.17 2.06,-0.25 m 25.74,4.42 c -6.8,0 -13.37,0.22 -19.63,0.74 21.17,13.52 40.04,32.2 30.39,52.69 l -23.59,13.43 c -2.56,1.46 -5.21,2.93 -7.94,4.37 51.84,-9.65 106.4,-18.34 154.92,-18.34 7.44,0 14.74,0.2 21.87,0.64 13.76,0.82 26.6,3.2 36.23,6.21 9.71,3.01 15.13,7.49 14.72,8.88 l -0.85,0.96 c -0.27,0.52 -0.31,1.09 0.23,6.27 0.74,8.68 0.07,20.74 -1.94,33.55 -1.14,7.48 -2.63,15.23 -4.42,23.16 -4.4,19.51 -10.62,40.12 -17.91,60.59 -3.85,10.88 -7.93,21.82 -12.22,32.78 l 130.94,57.44 c 0.04,-0.12 0.08,-0.24 0.13,-0.36 l -78.51,-267.42 h -64.98 c -2.91,0 -5.33,-2.06 -5.88,-4.81 -0.05,0.01 -0.09,0.01 -0.13,0.01 -23.51,0 -50.16,-2.76 -75.93,-5.42 -25.81,-2.67 -52.01,-5.37 -75.5,-5.37"
         style="fill:#f9a87b;fill-opacity:1;fill-rule:nonzero;stroke:none"
         id="path412" />
      <path
         d="m 3029.41,1977.17 c 0,0 -9.81,15.95 -25.03,46.17 -16.55,32.88 -39.52,82.66 -63.21,147.17 -41.58,113.16 -5.49,192.16 74.9,193.64 0.76,0.01 1.53,0.02 2.31,0.02 6.84,0 14.01,-0.56 21.45,-1.69 85.8,-13.04 143.44,-132.24 181.58,-243.52 l -19.4,-66.07 -0.27,-0.12 -130.94,-57.44 -41.39,-18.16"
         style="fill:#364a5b;fill-opacity:1;fill-rule:nonzero;stroke:none"
         id="path414" />
      <path
         d="m 2872.7,1764.98 h -47.3 l -51.64,73.33 37.88,11.4 c -0.45,-7.11 -0.69,-14.42 -0.69,-21.96 0,-19.5 5.86,-34.66 17.41,-45.08 10.94,-9.87 26.48,-15.09 44.78,-17.44 -0.14,-0.08 -0.29,-0.16 -0.44,-0.25 m 8.61,5.16 c -20.47,1.7 -37.7,6.53 -49.09,16.8 -10.44,9.42 -15.51,22.76 -15.51,40.81 0,8.16 0.29,16.07 0.82,23.74 l 0.9,0.27 c 5.45,1.87 10.99,2.68 16.53,2.68 15.67,0 31.37,-6.48 45.21,-13.81 2.73,-1.44 5.38,-2.91 7.94,-4.37 l 23.59,-13.43 c 9.65,-20.49 -9.22,-39.17 -30.39,-52.69"
         style="fill:#f9a87b;fill-opacity:1;fill-rule:nonzero;stroke:none"
         id="path416" />
      <path
         d="m 2825.4,1764.98 h -79.72 l -11.36,11.37 39.44,61.96 51.64,-73.33"
         style="fill:#f9a87b;fill-opacity:1;fill-rule:nonzero;stroke:none"
         id="path418" />
      <path
         d="m 2843.73,2519.5 -1.67,0.06 c -0.01,0.03 -0.01,0.07 -0.02,0.11 -0.22,1.43 -0.42,2.7 -0.58,3.8 l 2.63,2.53 -0.36,-6.5"
         style="fill:#eff6fc;fill-opacity:1;fill-rule:nonzero;stroke:none"
         id="path420" />
      <path
         d="m 2933.65,1764.98 h -58.45 c -0.69,0.08 -1.37,0.16 -2.06,0.25 -18.3,2.35 -33.84,7.57 -44.78,17.44 -11.55,10.42 -17.41,25.58 -17.41,45.08 0,7.54 0.24,14.85 0.69,21.96 2.41,38.32 10.69,70.66 18.13,99.72 13.95,54.49 24.97,97.52 -8.46,150.55 -24.12,38.26 -34.04,83.43 -34.21,128.26 -0.02,6.13 0.14,12.26 0.47,18.37 2.58,47.61 15.58,93.71 33.6,129.48 13.21,26.19 18.22,53.69 19.43,78 1.17,23.55 -1.22,44.11 -3.18,57.61 -0.37,2.56 -0.73,4.87 -1.04,6.89 l 5.08,4.88 c 0.16,-1.1 0.36,-2.37 0.58,-3.8 0.01,-0.04 0.01,-0.08 0.02,-0.11 0.23,-1.51 0.49,-3.16 0.75,-4.96 2.41,-16.1 5.83,-43.62 2.46,-74.74 -0.1,-0.89 -0.2,-1.78 -0.31,-2.67 -2.47,-20.52 -7.94,-42.49 -18.63,-63.7 -17.61,-34.95 -30.36,-79.92 -33,-126.37 -0.34,-6 -0.52,-12.03 -0.51,-18.07 0,-0.64 0,-1.27 0.01,-1.91 0.32,-43.44 10.04,-87.1 33.36,-124.09 34.75,-55.12 22.89,-101.43 9.16,-155.05 -7.23,-28.26 -15.27,-59.63 -17.82,-96.51 -0.53,-7.67 -0.82,-15.58 -0.82,-23.74 0,-18.05 5.07,-31.39 15.51,-40.81 11.39,-10.27 28.62,-15.1 49.09,-16.8 6.26,-0.52 12.83,-0.74 19.63,-0.74 23.49,0 49.69,2.7 75.5,5.37 25.77,2.66 52.42,5.42 75.93,5.42 0.04,0 0.08,0 0.13,-0.01 -0.08,-0.38 -0.12,-0.78 -0.12,-1.18 v -4.58 h -0.01 c -23.22,0 -49.71,-2.74 -75.34,-5.39 -14.51,-1.5 -29.13,-3.01 -43.38,-4.05"
         style="fill:#eff6fc;fill-opacity:1;fill-rule:nonzero;stroke:none"
         id="path422" />
      <path
         d="m 3117.49,1764.98 h -59.11 c -3.32,0 -6,2.69 -6,6.01 v 3.43 4.58 c 0,0.4 0.04,0.8 0.12,1.18 0.55,2.75 2.97,4.81 5.88,4.81 h 64.98 l -5.87,-20.01"
         style="fill:#eff6fc;fill-opacity:1;fill-rule:nonzero;stroke:none"
         id="path424" />
      <path
         d="m 3117.49,1764.98 h -1065.13 134.09 v 0 h 412.74 v 0 h 47.5 33.65 65.34 79.72 47.3 2.5 58.45 183.84"
         style="fill:#537ec8;fill-opacity:1;fill-rule:nonzero;stroke:none"
         id="path426" />
      <path
         d="m 2599.19,1764.98 h -412.74 v 0 c -4.57,0 -8.32,3.75 -8.32,8.33 0,4.57 3.75,8.32 8.32,8.32 h 71.15 11.12 12.26 69.13 249.08 c 4.58,0 8.32,-3.75 8.32,-8.32 0,-4.58 -3.74,-8.33 -8.32,-8.33 v 0"
         style="fill:#eff6fc;fill-opacity:1;fill-rule:nonzero;stroke:none"
         id="path428" />
      <path
         d="m 3229.22,2572.77 c -20.88,0 -41.75,7.96 -57.67,23.89 -15.92,15.92 -23.89,36.79 -23.89,57.66 0,14.1 3.63,28.2 10.9,40.77 l 111.42,-111.42 c -12.57,-7.27 -26.67,-10.9 -40.76,-10.9"
         style="fill:#b8d2ef;fill-opacity:1;fill-rule:nonzero;stroke:none"
         id="path430" />
    </g>
  </g>
</svg>
